<svg width="21" height="21" viewBox="0 0 21 21" fill="none" xmlns="http://www.w3.org/2000/svg">
<path d="M20.6896 0.310408C20.592 0.21205 20.476 0.133982 20.3481 0.0807055C20.2202 0.0274293 20.0831 0 19.9445 0C19.806 0 19.6688 0.0274293 19.541 0.0807055C19.4131 0.133982 19.297 0.21205 19.1995 0.310408L13.1235 6.39688V4.72835C13.1235 4.45003 13.0129 4.18311 12.8161 3.98631C12.6193 3.78952 12.3524 3.67896 12.0741 3.67896C11.7958 3.67896 11.5289 3.78952 11.3321 3.98631C11.1353 4.18311 11.0247 4.45003 11.0247 4.72835V8.92591C11.0264 9.06304 11.0549 9.19852 11.1086 9.32468C11.2151 9.5811 11.4189 9.78487 11.6753 9.89135C11.8015 9.94512 11.937 9.97365 12.0741 9.9753H16.2717C16.55 9.9753 16.8169 9.86474 17.0137 9.66794C17.2105 9.47115 17.321 9.20423 17.321 8.92591C17.321 8.6476 17.2105 8.38068 17.0137 8.18388C16.8169 7.98708 16.55 7.87652 16.2717 7.87652H14.6031L20.6896 1.80054C20.7879 1.70299 20.866 1.58693 20.9193 1.45905C20.9726 1.33117 21 1.19401 21 1.05548C21 0.916944 20.9726 0.779783 20.9193 0.651905C20.866 0.524027 20.7879 0.407963 20.6896 0.310408ZM9.32468 11.1086C9.19852 11.0549 9.06304 11.0264 8.92591 11.0247H4.72835C4.45003 11.0247 4.18311 11.1353 3.98631 11.3321C3.78952 11.5289 3.67896 11.7958 3.67896 12.0741C3.67896 12.3524 3.78952 12.6193 3.98631 12.8161C4.18311 13.0129 4.45003 13.1235 4.72835 13.1235H6.39688L0.310408 19.1995C0.21205 19.297 0.133982 19.4131 0.0807055 19.541C0.0274293 19.6688 0 19.806 0 19.9445C0 20.0831 0.0274293 20.2202 0.0807055 20.3481C0.133982 20.476 0.21205 20.592 0.310408 20.6896C0.407963 20.7879 0.524027 20.866 0.651905 20.9193C0.779783 20.9726 0.916944 21 1.05548 21C1.19401 21 1.33117 20.9726 1.45905 20.9193C1.58693 20.866 1.70299 20.7879 1.80054 20.6896L7.87652 14.6031V16.2717C7.87652 16.55 7.98708 16.8169 8.18388 17.0137C8.38068 17.2105 8.6476 17.321 8.92591 17.321C9.20423 17.321 9.47115 17.2105 9.66794 17.0137C9.86474 16.8169 9.9753 16.55 9.9753 16.2717V12.0741C9.97365 11.937 9.94512 11.8015 9.89135 11.6753C9.78487 11.4189 9.5811 11.2151 9.32468 11.1086Z" fill="white"/>
</svg>
