<svg width="16" height="12" viewBox="0 0 16 12" fill="none" xmlns="http://www.w3.org/2000/svg">
<path d="M12.9991 3.00503H3.40608L4.70648 1.71463C4.89484 1.52626 5.00066 1.27079 5.00066 1.0044C5.00066 0.73802 4.89484 0.482546 4.70648 0.294183C4.51812 0.105821 4.26264 1.98472e-09 3.99626 0C3.72988 -1.98472e-09 3.4744 0.105821 3.28604 0.294183L0.285102 3.29512C0.194033 3.39025 0.122646 3.50243 0.0750369 3.62522C-0.0250123 3.86876 -0.0250123 4.14192 0.0750369 4.38546C0.122646 4.50825 0.194033 4.62043 0.285102 4.71556L3.28604 7.7165C3.37903 7.81026 3.48967 7.88467 3.61156 7.93546C3.73346 7.98624 3.86421 8.01239 3.99626 8.01239C4.12831 8.01239 4.25906 7.98624 4.38096 7.93546C4.50285 7.88467 4.61349 7.81026 4.70648 7.7165C4.80024 7.62351 4.87466 7.51287 4.92544 7.39097C4.97623 7.26908 5.00237 7.13833 5.00237 7.00628C5.00237 6.87422 4.97623 6.74348 4.92544 6.62158C4.87466 6.49968 4.80024 6.38905 4.70648 6.29606L3.40608 5.00565H12.9991C13.2644 5.00565 13.5188 5.11104 13.7064 5.29864C13.894 5.48623 13.9994 5.74067 13.9994 6.00596V10.0072C13.9994 10.2725 14.1048 10.5269 14.2924 10.7145C14.48 10.9021 14.7344 11.0075 14.9997 11.0075C15.265 11.0075 15.5194 10.9021 15.707 10.7145C15.8946 10.5269 16 10.2725 16 10.0072V6.00596C16 5.21007 15.6838 4.44677 15.121 3.88398C14.5583 3.3212 13.795 3.00503 12.9991 3.00503Z" fill="white"/>
</svg>
